<?xml version="1.0" encoding="UTF-8"?>
<svg width="230px" height="280px" viewBox="0 0 230 280" version="1.1" xmlns="http://www.w3.org/2000/svg" xmlns:xlink="http://www.w3.org/1999/xlink">
    <title>apple</title>
    <g id="Page-1" stroke="none" stroke-width="1" fill-rule="evenodd">
        <g id="Artboard" transform="translate(-28.000000, -63.000000)">
            <g id="apple" transform="translate(28.000000, 63.000000)">
                <path d="M126.813,24.366 C145.211,0.118 170.787,0 170.787,0 C170.787,0 174.591,22.797 156.315,44.758 C136.8,68.208 114.618,64.371 114.618,64.371 C114.618,64.371 110.453,45.929 126.813,24.366 L126.813,24.366 Z M116.958,80.34 C126.423,80.34 143.988,67.33 166.852,67.33 C206.209,67.33 221.692,95.335 221.692,95.335 C221.692,95.335 191.41,110.817 191.41,148.384 C191.41,190.763 229.133,205.369 229.133,205.369 C229.133,205.369 202.763,279.589 167.145,279.589 C150.786,279.589 138.068,268.565 120.831,268.565 C103.266,268.565 85.835,280 74.481,280 C41.957,280 0.867,209.595 0.867,153.001 C0.867,97.32 35.647,68.11 68.269,68.11 C89.476,68.11 105.933,80.34 116.958,80.34 L116.958,80.34 Z" id="Shape"></path>
            </g>
        </g>
    </g>
</svg>